<?xml version="1.0" standalone="no"?>
<!DOCTYPE svg PUBLIC "-//W3C//DTD SVG 20010904//EN"
 "http://www.w3.org/TR/2001/REC-SVG-20010904/DTD/svg10.dtd">
<svg version="1.0" xmlns="http://www.w3.org/2000/svg"
 width="1280.000000pt" height="1254.000000pt" viewBox="0 0 1280.000000 1254.000000"
 preserveAspectRatio="xMidYMid meet">
<metadata>
Created by potrace 1.15, written by Peter Selinger 2001-2017
</metadata>
<g transform="translate(0.000000,1254.000000) scale(0.100000,-0.100000)"
fill="#ffc107" stroke="none">
<path d="M6200 12527 c-122 -35 -204 -128 -259 -295 -36 -108 -54 -212 -86
-517 -42 -397 -78 -560 -150 -680 -50 -82 -69 -101 -144 -138 -59 -29 -74 -32
-156 -32 -105 0 -157 20 -225 86 -122 119 -188 284 -320 809 -116 457 -201
626 -354 696 -184 84 -476 -50 -540 -248 -20 -62 -20 -173 -1 -254 23 -97 66
-196 218 -502 178 -358 210 -447 211 -592 1 -92 -2 -111 -23 -154 -33 -65
-107 -138 -178 -173 -80 -39 -189 -40 -281 -1 -137 57 -222 120 -497 373 -253
232 -323 287 -434 343 -89 45 -98 47 -175 47 -71 0 -88 -4 -134 -30 -68 -37
-138 -113 -180 -196 -81 -162 -59 -303 69 -431 91 -91 223 -163 584 -318 324
-140 454 -213 548 -307 94 -93 126 -179 106 -286 -28 -159 -130 -257 -313
-303 -91 -23 -381 -29 -646 -13 -298 18 -533 16 -630 -5 -248 -54 -371 -226
-331 -464 29 -177 131 -278 323 -318 102 -22 381 -13 643 21 110 14 281 30
380 37 155 9 195 9 287 -5 180 -27 285 -89 345 -204 98 -185 38 -339 -188
-486 -97 -63 -201 -116 -424 -217 -415 -187 -542 -279 -590 -428 -32 -97 -5
-193 85 -306 81 -103 192 -166 291 -166 58 0 158 36 229 82 70 46 205 177 420
407 157 168 255 250 360 300 137 65 257 44 379 -65 29 -26 62 -69 78 -102 26
-52 28 -66 27 -162 -1 -149 -27 -224 -224 -655 -113 -247 -142 -336 -147 -455
-4 -81 -2 -104 17 -154 43 -114 155 -196 316 -232 240 -53 395 66 469 361 14
55 41 210 61 345 55 387 92 523 170 637 79 114 221 165 362 129 77 -19 126
-50 184 -115 97 -107 157 -261 258 -656 71 -277 101 -376 140 -462 104 -229
260 -319 465 -268 150 38 253 112 308 224 30 61 32 72 31 166 -1 150 -36 257
-204 615 -181 386 -228 540 -217 700 8 127 66 226 171 296 191 126 369 34 779
-406 222 -238 341 -333 456 -367 142 -41 281 39 366 211 90 182 64 336 -83
484 -86 87 -213 171 -482 317 -525 286 -670 437 -639 664 18 131 82 217 195
262 54 22 73 23 229 23 126 0 203 -6 295 -22 345 -58 456 -73 575 -79 194 -8
296 21 383 107 63 63 86 132 86 260 1 165 -38 257 -142 337 -74 57 -164 78
-327 76 -77 0 -192 -8 -255 -17 -376 -52 -443 -59 -590 -60 -177 -1 -250 14
-338 67 -103 61 -164 171 -170 303 -4 72 -1 88 23 139 59 125 228 251 551 413
404 202 554 344 554 522 0 131 -130 318 -265 382 -110 51 -226 35 -356 -51
-102 -66 -146 -107 -346 -321 -347 -370 -489 -471 -664 -474 -68 -1 -83 3
-152 37 -190 94 -223 247 -116 541 17 49 103 231 189 405 164 330 200 410 225
506 60 234 -2 369 -205 446 -65 25 -201 33 -260 16z"/>
<path d="M8744 7660 c-191 -40 -284 -162 -284 -371 0 -109 16 -191 95 -505
102 -400 114 -565 51 -708 -47 -107 -164 -194 -273 -204 -100 -9 -208 65 -325
222 -75 101 -132 197 -276 466 -139 261 -150 280 -228 400 -69 106 -166 205
-234 240 -64 33 -157 33 -225 1 -70 -35 -161 -130 -199 -210 -27 -57 -31 -77
-31 -146 0 -126 51 -219 202 -367 77 -77 126 -116 444 -358 187 -143 349 -296
407 -387 79 -124 90 -242 33 -358 -78 -159 -204 -210 -416 -170 -97 18 -247
71 -524 185 -245 100 -325 123 -441 124 -87 1 -99 -1 -148 -28 -95 -53 -144
-152 -157 -318 -12 -151 33 -288 122 -375 86 -83 196 -126 468 -183 323 -68
437 -127 506 -261 52 -104 62 -269 21 -362 -46 -103 -186 -202 -379 -267 -50
-16 -212 -61 -360 -99 -147 -38 -302 -81 -343 -96 -204 -73 -310 -183 -310
-321 0 -98 73 -251 154 -321 60 -53 114 -76 192 -81 171 -11 325 65 724 358
351 259 544 360 682 360 109 0 214 -73 270 -187 30 -61 32 -75 32 -157 -1
-178 -81 -350 -364 -781 -209 -318 -248 -383 -300 -490 -65 -137 -85 -208 -84
-315 0 -83 3 -102 27 -151 46 -94 152 -180 270 -219 21 -6 68 -12 106 -12 57
0 81 6 145 35 147 68 280 234 481 597 53 96 131 236 173 310 235 420 426 611
626 627 130 11 249 -44 296 -137 64 -125 48 -324 -61 -780 -100 -414 -105
-599 -17 -704 47 -58 116 -86 210 -86 201 0 345 78 399 218 18 46 22 77 22
157 0 111 -13 177 -93 465 -85 310 -97 450 -49 559 71 163 310 247 472 167
115 -56 207 -163 377 -437 150 -239 213 -329 281 -397 173 -176 372 -167 565
22 97 96 129 161 129 267 0 67 -4 83 -37 150 -49 97 -140 199 -318 355 -197
174 -368 348 -409 417 -51 87 -64 132 -59 212 11 168 146 306 328 336 138 23
312 -5 670 -108 352 -101 410 -114 552 -120 114 -5 134 -4 198 17 133 43 222
154 255 319 54 266 -70 445 -378 546 -59 19 -244 62 -410 95 -166 33 -349 74
-407 91 -294 84 -453 223 -490 427 -29 165 49 265 260 330 85 26 217 46 470
72 410 42 554 94 605 217 59 141 -72 387 -252 471 -54 25 -68 27 -188 27 -126
0 -134 -1 -250 -42 -66 -22 -203 -80 -305 -128 -456 -214 -563 -256 -711 -275
-144 -19 -261 16 -353 104 -101 99 -118 203 -54 336 56 116 122 194 403 480
343 349 415 455 415 614 0 87 -26 145 -98 215 -99 97 -251 160 -355 148 -61
-8 -148 -47 -203 -92 -96 -79 -168 -190 -346 -529 -141 -270 -228 -403 -322
-494 -121 -117 -245 -160 -380 -132 -125 26 -195 73 -238 162 -57 118 -60 265
-11 618 36 263 37 458 4 544 -30 75 -87 137 -154 167 -41 18 -73 23 -152 25
-55 2 -118 -1 -141 -6z"/>
<path d="M3740 6939 c-147 -21 -238 -99 -292 -251 -34 -95 -31 -382 6 -673 36
-280 45 -531 22 -644 -41 -203 -148 -306 -327 -318 -76 -6 -82 -4 -152 30 -49
24 -93 56 -134 99 -124 126 -178 211 -394 626 -181 346 -263 478 -353 568
-140 140 -294 161 -446 63 -175 -113 -248 -274 -206 -453 9 -38 39 -113 67
-166 47 -90 99 -164 340 -480 116 -152 169 -235 207 -320 81 -181 66 -313 -52
-439 -68 -71 -132 -103 -221 -109 -160 -10 -308 52 -695 292 -311 192 -455
252 -583 244 -121 -8 -201 -68 -257 -192 -100 -224 -47 -400 155 -516 81 -46
242 -94 450 -134 422 -82 497 -97 582 -121 108 -31 234 -91 290 -140 63 -54
95 -127 94 -217 -1 -116 -33 -191 -110 -261 -133 -121 -324 -183 -836 -272
-513 -90 -679 -147 -798 -274 -71 -75 -91 -127 -91 -236 -1 -144 49 -259 146
-335 77 -61 131 -75 293 -75 168 0 230 12 545 102 392 113 433 124 540 148
216 48 362 54 488 20 202 -53 324 -259 248 -420 -57 -123 -166 -220 -466 -416
-404 -263 -516 -353 -576 -461 -25 -45 -29 -64 -29 -128 0 -64 4 -82 27 -121
38 -65 136 -152 215 -191 61 -30 76 -33 153 -33 108 0 170 28 258 117 79 81
111 125 234 333 233 391 323 491 473 525 98 22 246 -31 327 -118 69 -73 91
-142 91 -277 0 -123 -13 -204 -78 -470 -71 -291 -78 -332 -78 -450 0 -91 4
-120 23 -169 52 -135 168 -207 355 -222 136 -11 235 19 308 93 114 113 135
262 107 763 -21 375 11 546 120 644 72 65 119 81 240 81 96 0 110 -3 164 -29
130 -64 257 -228 426 -554 199 -383 260 -480 356 -576 33 -34 87 -74 120 -91
53 -27 68 -30 154 -30 86 0 101 3 163 32 222 105 317 274 273 483 -21 98 -102
262 -208 420 -47 69 -123 183 -171 253 -113 167 -190 304 -229 408 -29 76 -32
95 -32 199 -1 111 0 118 32 183 71 144 177 211 301 189 126 -22 252 -98 546
-326 230 -180 284 -217 383 -264 66 -32 87 -37 147 -37 112 1 180 48 231 160
101 219 59 413 -121 557 -108 87 -243 148 -595 270 -351 121 -512 200 -615
303 -98 98 -138 211 -116 330 28 149 123 222 339 261 62 11 201 18 492 24 441
9 504 17 615 68 82 39 129 82 162 150 24 49 28 69 28 142 -1 219 -106 379
-280 425 -142 37 -273 13 -725 -130 -283 -89 -379 -109 -531 -109 l-136 -1
-79 40 c-131 67 -214 193 -214 325 0 147 101 276 391 500 322 249 406 331 461
448 27 55 30 71 26 135 -5 95 -34 154 -119 238 -93 94 -191 140 -291 140 -95
0 -178 -40 -264 -125 -78 -79 -124 -144 -283 -405 -209 -342 -311 -464 -444
-534 -58 -30 -69 -32 -162 -32 -92 0 -105 3 -160 31 -182 93 -191 316 -33 834
142 464 169 580 171 720 1 114 -17 178 -69 239 -46 53 -96 78 -181 91 -76 11
-76 11 -153 -1z"/>
</g>
</svg>
